<svg xmlns="http://www.w3.org/2000/svg" width="152" height="41" viewBox="0 0 152 41">
    <g fill="#FFF" fill-opacity=".196" fill-rule="evenodd">
        <path d="M10.294 3.816c4.7 1.557 8.103 2.336 10.206 2.336 2.066 0 5.385-.752 9.957-2.254 2.623-.862 5.449.566 6.311 3.189.352 1.071.332 2.23-.058 3.288-1.708 4.64-2.561 8.014-2.561 10.125 0 2.174.905 5.688 2.716 10.543.965 2.588-.35 5.468-2.937 6.433-1.03.384-2.159.418-3.21.096-4.993-1.528-8.399-2.292-10.218-2.292-1.848 0-5.334.789-10.459 2.366-2.639.813-5.437-.668-6.25-3.307-.316-1.028-.293-2.13.066-3.142 1.75-4.934 2.624-8.5 2.624-10.697 0-2.136-.826-5.565-2.479-10.286-.912-2.607.461-5.459 3.067-6.371 1.043-.365 2.176-.375 3.225-.027z"/>
        <circle cx="134.5" cy="20.5" r="17.5"/>
        <circle cx="58.5" cy="20.5" r="17.5"/>
        <path d="M86.294 3.816c4.7 1.557 8.103 2.336 10.206 2.336 2.066 0 5.385-.752 9.957-2.254 2.623-.862 5.449.566 6.311 3.189.352 1.071.332 2.23-.058 3.288-1.708 4.64-2.561 8.014-2.561 10.125 0 2.174.905 5.688 2.716 10.543.965 2.588-.35 5.468-2.937 6.433-1.03.384-2.159.418-3.21.096-4.993-1.528-8.399-2.292-10.218-2.292-1.848 0-5.334.789-10.459 2.366-2.639.813-5.437-.668-6.25-3.307-.316-1.028-.293-2.13.066-3.142 1.75-4.934 2.624-8.5 2.624-10.697 0-2.136-.826-5.565-2.479-10.286-.912-2.607.461-5.459 3.067-6.371 1.043-.365 2.176-.375 3.225-.027z"/>
    </g>
</svg>
